<svg width="32" height="32" viewBox="0 0 32 32" fill="none" xmlns="http://www.w3.org/2000/svg">
<path d="M24.1 5.70005L31.4 1.30005L28.2 6.20005C28.2 6.20005 29.1 4.50005 28.2 4.30005C27.4 4.10005 24.4 5.40005 24 5.70005" fill="#F05423"/>
<path d="M9.7001 1.5001C6.5001 1.3001 3.3001 1.9001 0.600098 3.2001C3.2001 2.1001 5.7001 2.0001 8.7001 2.1001C13.6001 2.1001 18.1001 4.8001 21.3001 8.7001C21.3001 8.7001 20.9001 9.2001 20.2001 10.7001C19.8001 11.6001 17.2001 12.7001 17.2001 12.7001C17.2001 12.7001 15.1001 13.8001 14.5001 14.4001C13.9001 15.0001 13.1001 15.7001 13.1001 17.4001C13.1001 17.4001 13.1001 17.6001 13.2001 17.5001C13.2001 17.5001 13.9001 16.4001 14.4001 15.8001C14.9001 15.2001 15.5001 14.8001 15.8001 14.6001C16.1001 14.4001 19.1001 12.3001 19.6001 12.0001C20.0001 11.6001 21.0001 10.9001 21.1001 10.7001C21.3001 10.5001 21.3001 10.5001 21.4001 10.1001C21.4001 9.8001 21.8001 9.6001 21.9001 9.6001C24.7001 13.4001 26.4001 18.1001 26.0001 22.8001C25.8001 25.8001 25.1001 28.3001 23.7001 30.8001C25.4001 28.2001 26.4001 25.1001 26.7001 21.8001C27.6001 11.3001 19.9001 2.2001 9.7001 1.5001Z" fill="#F05423"/>
<path d="M20.6999 12.7001C20.6999 12.7001 19.6999 13.3001 19.4999 13.5001C19.2999 13.6001 18.7999 13.9001 18.3999 14.8001C17.8999 15.7001 17.4999 16.6001 17.3999 16.7001C17.3999 16.9001 17.1999 17.2001 16.5999 17.5001C16.0999 17.8001 15.1999 18.2001 14.7999 19.0001C14.7999 19.0001 14.6999 19.3001 14.8999 19.7001C14.8999 19.7001 14.9999 19.8001 15.0999 19.7001C15.0999 19.4001 15.4999 18.9001 15.7999 18.6001C15.7999 18.6001 16.4999 18.1001 17.0999 17.9001C17.6999 17.7001 18.2999 17.0001 18.4999 16.5001C18.6999 16.0001 19.2999 14.3001 19.4999 14.0001C19.6999 13.7001 19.8999 13.3001 20.6999 12.9001V12.6001V12.7001Z" fill="#F05423"/>
<path d="M13.2001 18.9999C13.2001 18.9999 14.9001 19.5999 14.7001 21.4999C14.7001 21.4999 14.7001 21.9999 14.1001 22.8999C13.6001 23.8999 13.1001 24.7999 12.9001 25.2999C12.7001 25.7999 12.5001 26.7999 12.8001 27.9999C12.8001 27.9999 12.8001 27.9999 12.6001 27.7999C12.4001 27.4999 11.9001 26.5999 11.8001 26.0999C11.8001 25.5999 11.6001 24.9999 12.4001 23.3999C13.0001 22.1999 13.3001 21.8999 13.4001 21.3999C13.6001 20.8999 13.6001 20.2999 13.1001 18.8999" fill="#F05423"/>
<path d="M11.6002 16.9C11.9002 16.7 12.1002 16.5 12.2002 16.1C12.1002 15.8 10.8002 13.5 10.5002 13.1C10.1002 12.9 9.60018 12.7 9.10018 12.7C7.70018 12.7 6.50018 13.9 6.50018 15.3C6.50018 16.7 7.10018 17.3 8.10018 17.7C8.10018 18 8.10018 18.3 8.10018 18.5C6.10018 19.5 4.50018 19.8 3.80018 21.9C3.70018 22.3 2.90018 23.3 3.30018 23.9C3.70018 24.4 5.20018 24 5.70018 23.9C7.50018 23.2 8.80018 21.9 9.40018 20V19.7C8.20018 21 7.00018 22.6 4.50018 22.6C3.30018 21.5 7.00018 19.1 8.40018 19C8.40018 19 8.50018 17.8 9.30018 17.1C9.80018 16.7 10.3002 16.9 10.6002 17.2C10.2002 15.8 8.70018 15.7 8.40018 16.9C7.80018 16.6 7.40018 15.9 7.40018 15.2C7.40018 14.2 8.20018 13.3 9.30018 13.3C10.4002 13.3 10.1002 13.4 10.4002 13.7C10.4002 13.9 10.3002 14 10.2002 14.2C10.6002 14.4 11.0002 14.8 11.3002 14.9C11.3002 15.1 11.2002 15.3 11.1002 15.4C11.3002 15.6 11.5002 15.8 11.7002 16C11.7002 16.5 11.3002 16.7 11.0002 16.8C11.4002 16.8 11.8002 17 12.2002 17C12.1002 17 12.0002 16.9 11.9002 16.8" fill="#F05423"/>
</svg>
