<svg width="142" height="58" viewBox="0 0 142 58" fill="none" xmlns="http://www.w3.org/2000/svg">
<path d="M40.1827 45.2746L38.672 46.6519C35.3073 45.9431 33.6304 43.9955 33.6304 40.7953V26.2127H38.6174V39.0823C38.6166 42.5069 39.1368 44.5774 40.1827 45.2746Z" fill="white"/>
<path d="M78.6469 45.6394V26.1799H83.6247V47.3469C83.6247 50.5451 81.9562 52.4995 78.59 53.209L77.0815 51.8276C78.1251 51.1304 78.6469 49.0647 78.6469 45.6394Z" fill="white"/>
<path d="M56.1851 26.1799L55.6356 30.6701C55.1046 30.6087 54.4189 30.5752 53.597 30.5752C52.0924 30.5752 50.8333 31.0419 49.8367 31.971C48.8316 32.9008 48.3229 33.9957 48.3229 35.2721V46.5351H43.3667V31.6517V26.1799H48.0766V31.0896H48.1405C48.7931 29.7123 49.692 28.5648 50.8387 27.6691C52.1124 26.6772 53.4846 26.1799 54.963 26.1799H56.1851Z" fill="white"/>
<path d="M64.2236 36.7748C61.4384 36.7748 59.9554 38.1494 59.9554 40.2355C59.9554 42.4288 62.1587 43.7488 64.085 43.7488H73.2902V46.859H63.7864C59.4782 46.859 56.002 43.9399 56.002 40.3577C56.002 36.9542 58.8148 33.6463 63.2269 33.6463H70.5828C69.8801 29.7373 66.7402 28.8914 64.8123 28.9105C62.6651 28.9105 60.7034 30.2585 60.7034 30.2585L59.2835 27.7009C59.2835 27.7009 61.6062 25.8563 65.2818 25.8563C71.7033 25.8563 75.5821 31.5901 75.5821 36.7748H64.2236Z" fill="white"/>
<path d="M69.949 40.1287C69.949 40.6697 69.7382 41.1329 69.3072 41.519C68.8878 41.9045 68.3583 42.0921 67.7087 42.0921C67.0454 42.0921 66.5097 41.9051 66.0749 41.5231C65.6455 41.152 65.4292 40.6888 65.4292 40.1294C65.4292 39.5618 65.6455 39.0829 66.0872 38.7029C66.5351 38.3223 67.0723 38.1306 67.7095 38.1306C68.3591 38.1306 68.8885 38.3148 69.308 38.6941C69.7382 39.072 69.949 39.5611 69.949 40.1287Z" fill="white"/>
<path d="M115.633 53.9844C115.633 54.5281 115.412 54.9879 114.991 55.37C114.572 55.7486 114.037 55.9539 113.384 55.9539C112.736 55.9539 112.191 55.7486 111.764 55.3734C111.327 54.9982 111.104 54.5281 111.104 53.9844C111.104 53.4107 111.332 52.9291 111.767 52.5545C112.204 52.1725 112.745 51.9815 113.384 51.9815C114.037 51.9815 114.572 52.1725 114.991 52.5505C115.412 52.9175 115.633 53.3991 115.633 53.9844Z" fill="white"/>
<path d="M108.95 54.1245C108.95 54.6634 108.745 55.1205 108.316 55.4991C107.894 55.8886 107.353 56.0756 106.704 56.0756C106.051 56.0756 105.518 55.8914 105.079 55.5093C104.647 55.1355 104.423 54.6716 104.423 54.1238C104.423 53.5426 104.647 53.0725 105.087 52.6871C105.535 52.3017 106.07 52.1134 106.704 52.1134C107.352 52.1134 107.893 52.2942 108.316 52.6844C108.745 53.0616 108.95 53.5433 108.95 54.1245Z" fill="white"/>
<path d="M0.97168 26.0583H5.91096V29.4092C6.79061 28.3484 7.74876 27.5434 8.80465 27.0243C9.84592 26.5065 10.9842 26.2309 12.1986 26.2309C13.5023 26.2309 14.6205 26.5065 15.564 27.0147C16.5206 27.5434 17.2933 28.3409 17.9028 29.3949C18.7971 28.3409 19.7499 27.5434 20.775 27.0147C21.8093 26.5065 22.8975 26.2309 24.055 26.2309C25.4287 26.2309 26.6047 26.5065 27.6113 27.0243C28.608 27.5618 29.3637 28.3225 29.8793 29.3028C30.3934 30.292 30.6597 31.803 30.6597 33.8496V46.5459H25.2748V35.2194C25.2748 33.2397 25.0701 31.9197 24.6322 31.2627C24.2112 30.6085 23.4794 30.2817 22.465 30.2817C21.2721 30.2817 20.3148 30.7374 19.5867 31.6529C18.8618 32.5712 18.5031 34.3571 18.5031 37.0211V46.5472H13.1298V35.6731C13.1298 33.5269 12.9859 32.1455 12.6981 31.5165C12.3032 30.6985 11.5344 30.2831 10.3739 30.2831C9.5881 30.2831 8.86545 30.4953 8.20975 30.9182C7.55406 31.3453 7.07229 31.9702 6.79215 32.7745C6.49047 33.5979 6.34963 34.9711 6.34963 36.9161V46.5479H0.97168V26.0583Z" fill="white"/>
<path d="M133.612 47.6082C131.825 47.6082 129.906 46.252 129.906 43.5293C129.906 40.8019 131.49 39.4457 133.409 39.4457C135.174 39.4457 137.118 40.8019 137.118 43.5293C137.118 46.252 135.544 47.6082 133.612 47.6082ZM133.173 35.8779C127.979 35.8779 124.863 38.7806 124.863 43.4891C124.863 44.7573 125.174 46.0466 125.838 47.1593H116.465C114.929 47.1593 112.602 45.7001 112.529 42.6582C112.449 39.3427 112.449 44.264 112.414 36.3076H107.414L107.431 44.2975C107.431 46.3952 105.049 47.1593 103.714 47.1593H96.5367C95.1591 47.1593 92.8742 45.9259 92.551 43.588V36.3452H87.5717V49.2099C87.5717 52.6434 87.0445 54.7036 83.4097 56.6186L84.9289 58C90.8732 56.0721 92.551 54.1129 92.551 50.9154V48.729C93.1897 49.7059 94.6189 51.1071 96.8399 51.1071H105.754C108.147 51.0321 110.555 49.8894 111.425 47.836C111.538 48.1409 112.838 51.1071 116.072 51.1071H133.776C138.844 51.0764 141.885 48.1737 141.885 43.4884C141.885 39.7554 138.844 35.8779 133.173 35.8779Z" fill="white"/>
<path d="M88.875 4.60071L97.4937 0L93.745 5.07824C93.745 5.07824 94.8009 3.28476 93.8435 3.1415C92.8915 2.96208 89.406 4.30191 88.875 4.60071Z" fill="white"/>
<path d="M71.9819 0.231213C68.1608 -0.0184695 64.4975 0.650762 61.2329 2.03561C64.2859 0.901127 67.2896 0.826088 70.7982 0.877934C76.5448 0.951611 81.8835 3.71108 85.6569 7.78036C85.5707 7.86495 85.2205 8.26881 84.3747 9.84877C83.866 10.7861 80.8946 11.9513 80.8946 11.9513C80.8946 11.9513 78.4065 13.1349 77.6838 13.7639C76.9704 14.3949 76.0177 15.1153 75.9938 16.8562C75.9938 16.8562 76.0277 17.0479 76.1639 16.9749C76.1639 16.9749 76.9658 15.8534 77.603 15.163C78.2395 14.487 78.879 14.1295 79.2061 13.9378C79.5278 13.7482 83.1364 11.572 83.6521 11.179C84.1793 10.8086 85.2544 9.98861 85.426 9.81193C85.6046 9.62773 85.6915 9.55747 85.7985 9.1618C85.867 8.86368 86.2387 8.69177 86.4088 8.6256C89.7304 12.553 91.6459 17.5221 91.2473 22.3991C90.9894 25.5638 90.2422 28.1199 88.5706 30.6966C90.55 27.9767 91.8006 24.7772 92.0815 21.2953C92.9696 10.4293 83.9769 0.99868 71.9819 0.231213Z" fill="white"/>
<path d="M84.9338 11.9246C84.9338 11.9246 83.7294 12.6006 83.4916 12.737C83.2699 12.8851 82.7089 13.1737 82.1856 14.1117C81.6545 15.0674 81.122 15.9604 81.0219 16.1446C80.9157 16.324 80.7449 16.6808 80.1207 17.0301C79.4896 17.3705 78.5238 17.7246 78.0297 18.6141C78.0297 18.6141 77.882 18.9334 78.1929 19.3591C78.1929 19.3591 78.3237 19.5058 78.3768 19.267C78.4838 18.9484 78.7978 18.4047 79.248 18.1059C79.248 18.1059 80.0291 17.5984 80.7618 17.3964C81.4998 17.1795 82.1425 16.4823 82.4072 15.9775C82.6812 15.4747 83.3076 13.7187 83.5285 13.4015C83.7478 13.0891 84.0564 12.69 84.9145 12.2745L84.9338 11.9246Z" fill="white"/>
<path d="M76.1168 18.4665C76.1168 18.4665 78.1462 19.0989 77.8799 21.1086C77.8799 21.1086 77.8168 21.6196 77.2188 22.578C76.6009 23.5699 76.026 24.5161 75.842 25.0442C75.6643 25.5776 75.381 26.5811 75.722 27.8118C75.722 27.8118 75.6312 27.8418 75.4634 27.6392C75.204 27.2824 74.6461 26.3929 74.5576 25.8962C74.4706 25.405 74.3151 24.699 75.2771 23.0897C76.026 21.8215 76.3053 21.5643 76.4993 21.0281C76.6971 20.4864 76.7709 19.8336 76.1168 18.4665Z" fill="white"/>
<path d="M74.2099 16.3242C74.5224 16.1107 74.7933 15.9565 74.8887 15.5274C74.724 15.232 73.1833 12.7781 72.9147 12.3845C72.4452 12.1342 71.878 11.965 71.29 11.965C69.5877 11.965 68.2209 13.1929 68.2209 14.6958C68.2209 15.805 68.9751 16.7649 70.0464 17.1872C70.0087 17.4593 69.9817 17.8039 69.9509 18.0658C67.5837 19.1055 65.7443 19.3818 64.8978 21.6009C64.7354 22.0307 63.7995 23.082 64.2875 23.7355C64.7054 24.299 66.5416 23.8692 67.0911 23.6884C69.1898 22.9872 70.7444 21.5648 71.4663 19.6083V19.2603H71.4109C69.9456 20.5947 68.6103 22.3357 65.6327 22.2886C64.2705 21.1118 68.5626 18.6204 70.1726 18.5577C70.1726 18.5577 70.3357 17.2943 71.1992 16.6066C71.7764 16.1441 72.406 16.4183 72.7569 16.7246L72.8639 16.6278C72.406 15.2361 70.6213 15.1474 70.2449 16.4442C69.533 16.1093 69.052 15.4523 69.052 14.6958C69.052 13.6077 70.0441 12.7188 71.2877 12.7188C71.768 12.7188 72.2159 12.8586 72.5822 13.0892C72.5006 13.2836 72.4521 13.3839 72.3513 13.6261C72.7985 13.8403 73.3164 14.2135 73.6489 14.3833C73.5742 14.5675 73.5026 14.7551 73.4257 14.9352C73.615 15.1508 73.9236 15.3493 74.106 15.556C74.0868 16.0636 73.6773 16.2389 73.2541 16.3726V16.4197C73.7258 16.4743 74.1891 16.5309 74.6601 16.582V16.5309C74.5 16.4831 74.4131 16.449 74.2984 16.4054C74.2715 16.389 74.2314 16.3672 74.2099 16.3242Z" fill="white"/>
</svg>
