<svg width="317" height="131" viewBox="0 0 317 131" fill="none" xmlns="http://www.w3.org/2000/svg">
<path d="M88.1379 101.765L84.7422 104.861C77.1793 103.268 73.4099 98.89 73.4099 91.6969V58.9191H84.6194V87.8466C84.6177 95.5442 85.787 100.198 88.1379 101.765Z" fill="#181615"/>
<path d="M174.595 102.585V58.8455H185.784V106.424C185.784 113.612 182.034 118.005 174.467 119.6L171.077 116.495C173.422 114.928 174.595 110.285 174.595 102.585Z" fill="#181615"/>
<path d="M124.104 58.8455L122.869 68.9383C121.676 68.8003 120.134 68.7251 118.287 68.7251C114.905 68.7251 112.075 69.774 109.835 71.8625C107.576 73.9525 106.432 76.4135 106.432 79.2825V104.599H95.292V71.1448V58.8455H105.879V69.8813H106.022C107.489 66.7854 109.51 64.2062 112.087 62.1929C114.95 59.9633 118.034 58.8455 121.357 58.8455H124.104Z" fill="#181615"/>
<path d="M142.173 82.6606C135.912 82.6606 132.579 85.7504 132.579 90.4395C132.579 95.3693 137.531 98.3364 141.861 98.3364H162.552V105.327H141.19C131.506 105.327 123.693 98.7658 123.693 90.714C123.693 83.0639 130.015 75.6284 139.933 75.6284H156.467C154.887 66.8421 147.829 64.9407 143.496 64.9836C138.67 64.9836 134.26 68.0136 134.26 68.0136L131.069 62.2649C131.069 62.2649 136.289 58.1187 144.551 58.1187C158.985 58.1187 167.704 71.0068 167.704 82.6606H142.173Z" fill="#181615"/>
<path d="M155.042 90.1987C155.042 91.4147 154.568 92.4558 153.599 93.3237C152.656 94.1901 151.466 94.6118 150.006 94.6118C148.515 94.6118 147.311 94.1916 146.333 93.3329C145.368 92.4988 144.882 91.4576 144.882 90.2002C144.882 88.9244 145.368 87.848 146.361 86.9939C147.368 86.1383 148.575 85.7074 150.008 85.7074C151.468 85.7074 152.658 86.1214 153.601 86.9739C154.568 87.8234 155.042 88.9229 155.042 90.1987Z" fill="#181615"/>
<path d="M257.729 121.343C257.729 122.565 257.233 123.599 256.286 124.458C255.345 125.309 254.143 125.77 252.674 125.77C251.218 125.77 249.993 125.309 249.033 124.465C248.052 123.622 247.549 122.565 247.549 121.343C247.549 120.054 248.063 118.971 249.04 118.129C250.023 117.271 251.239 116.841 252.674 116.841C254.143 116.841 255.345 117.271 256.286 118.12C257.233 118.945 257.729 120.028 257.729 121.343Z" fill="#181615"/>
<path d="M242.708 121.658C242.708 122.869 242.246 123.896 241.283 124.747C240.335 125.623 239.119 126.043 237.66 126.043C236.192 126.043 234.995 125.629 234.007 124.77C233.036 123.93 232.533 122.887 232.533 121.656C232.533 120.35 233.036 119.293 234.024 118.427C235.031 117.56 236.233 117.137 237.66 117.137C239.117 117.137 240.333 117.544 241.283 118.421C242.246 119.269 242.708 120.351 242.708 121.658Z" fill="#181615"/>
<path d="M0 58.5724H11.1022V66.1045C13.0794 63.72 15.2331 61.9106 17.6065 60.7437C19.947 59.5799 22.5054 58.9604 25.2352 58.9604C28.1655 58.9604 30.679 59.5799 32.7998 60.7223C34.95 61.9106 36.6868 63.7032 38.0568 66.0723C40.0669 63.7032 42.2085 61.9106 44.5127 60.7223C46.8376 59.5799 49.2836 58.9604 51.8853 58.9604C54.9731 58.9604 57.6163 59.5799 59.879 60.7437C62.1192 61.952 63.8179 63.6618 64.9769 65.8653C66.1324 68.0887 66.731 71.4851 66.731 76.0853V104.623H54.6271V79.1644C54.6271 74.7145 54.167 71.7474 53.1827 70.2707C52.2365 68.8002 50.5914 68.0657 48.3114 68.0657C45.6302 68.0657 43.4782 69.09 41.8418 71.1478C40.2122 73.2117 39.4061 77.2261 39.4061 83.214V104.626H27.3283V80.1841C27.3283 75.36 27.0048 72.2549 26.3578 70.8411C25.4704 69.0026 23.7423 68.0687 21.1337 68.0687C19.3675 68.0687 17.7431 68.5456 16.2693 69.4963C14.7955 70.4562 13.7126 71.8608 13.0829 73.6687C12.4048 75.5195 12.0882 78.6062 12.0882 82.9779V104.628H0V58.5724Z" fill="#181615"/>
<path d="M298.142 107.011C294.125 107.011 289.811 103.962 289.811 97.8425C289.811 91.712 293.373 88.6637 297.685 88.6637C301.652 88.6637 306.022 91.712 306.022 97.8425C306.022 103.962 302.484 107.011 298.142 107.011ZM297.154 80.644C285.481 80.644 278.477 87.1686 278.477 97.7521C278.477 100.603 279.176 103.501 280.667 106.002H259.599C256.148 106.002 250.917 102.722 250.753 95.8844C250.573 88.4321 250.573 99.494 250.495 81.6101H239.256L239.294 99.5691C239.294 104.284 233.94 106.002 230.939 106.002H214.806C211.71 106.002 206.574 103.229 205.847 97.9744V81.6944H194.655V110.611C194.655 118.329 193.47 122.959 185.3 127.264L188.715 130.369C202.076 126.035 205.847 121.632 205.847 114.445V109.53C207.283 111.726 210.495 114.875 215.488 114.875H235.525C240.903 114.707 246.316 112.138 248.272 107.523C248.526 108.208 251.448 114.875 258.717 114.875H298.511C309.902 114.806 316.738 108.282 316.738 97.7505C316.736 89.3598 309.902 80.644 297.154 80.644Z" fill="#181615"/>
<path d="M197.586 10.3412L216.958 0L208.532 11.4146C208.532 11.4146 210.906 7.38328 208.754 7.06126C206.614 6.65798 198.779 9.66957 197.586 10.3412Z" fill="#181615"/>
<path d="M159.613 0.519716C151.024 -0.0415049 142.79 1.46275 135.452 4.57554C142.314 2.02551 149.066 1.85684 156.952 1.97338C169.869 2.13898 181.869 8.34155 190.35 17.4882C190.157 17.6784 189.37 18.5861 187.468 22.1375C186.325 24.2444 179.646 26.8634 179.646 26.8634C179.646 26.8634 174.053 29.5238 172.429 30.9376C170.826 32.356 168.684 33.9752 168.63 37.8885C168.63 37.8885 168.706 38.3193 169.013 38.1553C169.013 38.1553 170.815 35.6344 172.247 34.0826C173.678 32.563 175.116 31.7595 175.851 31.3286C176.574 30.9023 184.685 26.0108 185.844 25.1276C187.029 24.295 189.446 22.4518 189.831 22.0547C190.233 21.6406 190.428 21.4827 190.669 20.5933C190.823 19.9233 191.658 19.5368 192.04 19.3881C199.507 28.2158 203.812 39.3851 202.916 50.3473C202.337 57.4607 200.657 63.2063 196.9 68.9979C201.349 62.8843 204.16 55.6927 204.791 47.8662C206.787 23.4424 186.574 2.24478 159.613 0.519716Z" fill="#181615"/>
<path d="M188.724 26.8038C188.724 26.8038 186.017 28.3234 185.482 28.6301C184.984 28.9628 183.723 29.6115 182.547 31.7199C181.353 33.8682 180.156 35.8754 179.931 36.2894C179.693 36.6927 179.309 37.4946 177.906 38.2797C176.487 39.0449 174.316 39.8407 173.206 41.8403C173.206 41.8403 172.873 42.5579 173.572 43.5147C173.572 43.5147 173.866 43.8444 173.986 43.3077C174.226 42.5916 174.932 41.3695 175.944 40.6979C175.944 40.6979 177.7 39.557 179.347 39.1032C181.006 38.6155 182.45 37.0484 183.045 35.9137C183.661 34.7836 185.069 30.8366 185.565 30.1236C186.058 29.4213 186.752 28.5243 188.681 27.5905L188.724 26.8038Z" fill="#181615"/>
<path d="M168.909 41.5075C168.909 41.5075 173.47 42.929 172.872 47.4464C172.872 47.4464 172.73 48.5949 171.386 50.7493C169.997 52.9788 168.704 55.1057 168.291 56.2925C167.891 57.4916 167.255 59.7472 168.021 62.5135C168.021 62.5135 167.817 62.5809 167.44 62.1255C166.857 61.3235 165.603 59.324 165.404 58.2077C165.208 57.1037 164.859 55.5166 167.021 51.8993C168.704 49.0488 169.332 48.4707 169.768 47.2654C170.213 46.0479 170.379 44.5805 168.909 41.5075Z" fill="#181615"/>
<path d="M164.62 36.6925C165.323 36.2126 165.932 35.866 166.146 34.9015C165.776 34.2376 162.313 28.722 161.709 27.8372C160.654 27.2744 159.379 26.8942 158.057 26.8942C154.231 26.8942 151.159 29.6543 151.159 33.0323C151.159 35.5256 152.854 37.6831 155.262 38.6323C155.177 39.2441 155.116 40.0185 155.047 40.6073C149.726 42.9442 145.592 43.5652 143.689 48.5533C143.324 49.5194 141.221 51.8823 142.317 53.3513C143.257 54.6179 147.384 53.6518 148.619 53.2455C153.336 51.6692 156.831 48.4721 158.453 44.0743V43.2923H158.329C155.035 46.2916 152.034 50.2048 145.341 50.099C142.279 47.4539 151.927 41.8539 155.545 41.7129C155.545 41.7129 155.912 38.873 157.853 37.3274C159.15 36.2877 160.566 36.9041 161.354 37.5926L161.595 37.3749C160.566 34.2468 156.554 34.0474 155.708 36.9624C154.108 36.2095 153.027 34.7329 153.027 33.0323C153.027 30.5866 155.257 28.5886 158.052 28.5886C159.131 28.5886 160.138 28.9029 160.962 29.4212C160.778 29.8582 160.669 30.0836 160.443 30.628C161.448 31.1095 162.612 31.9482 163.359 32.33C163.191 32.7441 163.031 33.1657 162.858 33.5706C163.283 34.0551 163.977 34.5013 164.387 34.9659C164.344 36.1068 163.423 36.5009 162.472 36.8014V36.9072C163.532 37.0299 164.574 37.1572 165.632 37.2722V37.1572C165.272 37.0498 165.077 36.9731 164.819 36.875C164.759 36.8382 164.669 36.7891 164.62 36.6925Z" fill="#181615"/>
</svg>
