<svg width="226" height="93" viewBox="0 0 226 93" fill="none" xmlns="http://www.w3.org/2000/svg">
<path d="M62.8741 72.5949L60.4517 74.8034C55.0566 73.6669 52.3677 70.5439 52.3677 65.4126V42.0303H60.3641V62.666C60.3628 68.1571 61.197 71.477 62.8741 72.5949Z" fill="#FFFCF3"/>
<path d="M124.55 73.1804V41.978H132.531V75.9183C132.531 81.0464 129.856 84.1803 124.458 85.3179L122.04 83.1028C123.713 81.9849 124.55 78.6727 124.55 73.1804Z" fill="#FFFCF3"/>
<path d="M88.5312 41.978L87.6502 49.1778C86.7987 49.0794 85.6992 49.0258 84.3813 49.0258C81.9688 49.0258 79.9499 49.774 78.3519 51.2638C76.7403 52.7548 75.9246 54.5104 75.9246 56.557V74.6167H67.9775V50.7519V41.978H75.5297V49.8505H75.6321C76.6786 47.642 78.1199 45.8022 79.9586 44.3659C82.0009 42.7755 84.2011 41.978 86.5716 41.978H88.5312Z" fill="#FFFCF3"/>
<path d="M101.42 58.9667C96.9544 58.9667 94.5764 61.1708 94.5764 64.5159C94.5764 68.0326 98.1094 70.1493 101.198 70.1493H115.958V75.1362H100.719C93.8113 75.1362 88.2373 70.4555 88.2373 64.7117C88.2373 59.2544 92.7476 53.9503 99.8222 53.9503H111.617C110.49 47.6824 105.455 46.3261 102.364 46.3567C98.9214 46.3567 95.7759 48.5182 95.7759 48.5182L93.4991 44.4173C93.4991 44.4173 97.2234 41.4595 103.117 41.4595C113.414 41.4595 119.633 50.6534 119.633 58.9667H101.42Z" fill="#FFFCF3"/>
<path d="M110.6 64.3441C110.6 65.2115 110.262 65.9542 109.571 66.5733C108.899 67.1914 108.05 67.4922 107.008 67.4922C105.944 67.4922 105.086 67.1925 104.388 66.5799C103.7 65.9848 103.353 65.2421 103.353 64.3452C103.353 63.4351 103.7 62.6672 104.408 62.0579C105.126 61.4475 105.988 61.1401 107.009 61.1401C108.051 61.1401 108.9 61.4355 109.572 62.0437C110.262 62.6497 110.6 63.434 110.6 64.3441Z" fill="#FFFCF3"/>
<path d="M183.854 86.5617C183.854 87.4335 183.5 88.1707 182.825 88.7833C182.153 89.3904 181.296 89.7196 180.248 89.7196C179.209 89.7196 178.335 89.3904 177.651 88.7888C176.951 88.1871 176.592 87.4335 176.592 86.5617C176.592 85.6417 176.958 84.8695 177.656 84.2689C178.356 83.6564 179.224 83.3501 180.248 83.3501C181.296 83.3501 182.153 83.6564 182.825 84.2624C183.5 84.8509 183.854 85.6231 183.854 86.5617Z" fill="#FFFCF3"/>
<path d="M173.138 86.7857C173.138 87.6499 172.809 88.3828 172.122 88.9899C171.445 89.6144 170.578 89.9142 169.537 89.9142C168.49 89.9142 167.636 89.6188 166.931 89.0063C166.239 88.4068 165.88 87.663 165.88 86.7846C165.88 85.8527 166.239 85.099 166.944 84.481C167.662 83.8629 168.519 83.561 169.537 83.561C170.577 83.561 171.444 83.8509 172.122 84.4766C172.809 85.0815 173.138 85.8538 173.138 86.7857Z" fill="#FFFCF3"/>
<path d="M0 41.7832H7.91989V47.1562C9.33036 45.4553 10.8667 44.1645 12.5598 43.3321C14.2294 42.5019 16.0545 42.0599 18.0018 42.0599C20.0922 42.0599 21.8852 42.5019 23.3981 43.3168C24.932 44.1645 26.1709 45.4433 27.1483 47.1333C28.5822 45.4433 30.1099 44.1645 31.7536 43.3168C33.4121 42.5019 35.157 42.0599 37.0129 42.0599C39.2157 42.0599 41.1012 42.5019 42.7153 43.3321C44.3134 44.1941 45.5252 45.4137 46.3519 46.9856C47.1763 48.5717 47.6032 50.9946 47.6032 54.2762V74.634H38.9689V56.4727C38.9689 53.2983 38.6406 51.1817 37.9385 50.1283C37.2635 49.0793 36.0899 48.5553 34.4635 48.5553C32.5508 48.5553 31.0156 49.286 29.8483 50.754C28.6858 52.2263 28.1108 55.09 28.1108 59.3615V74.6362H19.4949V57.2001C19.4949 53.7588 19.2642 51.5437 18.8026 50.5352C18.1696 49.2236 16.9368 48.5575 15.0759 48.5575C13.816 48.5575 12.6573 48.8977 11.6059 49.5759C10.5545 50.2606 9.78201 51.2626 9.33283 52.5523C8.8491 53.8725 8.62327 56.0745 8.62327 59.1931V74.6373H0V41.7832Z" fill="#FFFCF3"/>
<path d="M212.683 76.3373C209.817 76.3373 206.74 74.1627 206.74 69.7971C206.74 65.4238 209.28 63.2492 212.357 63.2492C215.186 63.2492 218.304 65.4238 218.304 69.7971C218.304 74.1627 215.78 76.3373 212.683 76.3373ZM211.978 57.5283C203.651 57.5283 198.654 62.1827 198.654 69.7325C198.654 71.766 199.153 73.8334 200.217 75.6175H185.188C182.726 75.6175 178.994 73.2777 178.877 68.4002C178.749 63.084 178.749 70.9752 178.693 58.2175H170.676L170.703 71.0288C170.703 74.3924 166.884 75.6175 164.742 75.6175H153.234C151.025 75.6175 147.361 73.6398 146.843 69.8911V58.2776H138.859V78.9056C138.859 84.411 138.014 87.7145 132.186 90.785L134.622 93C144.153 89.9088 146.843 86.7672 146.843 81.6403V78.1345C147.867 79.7009 150.159 81.9477 153.72 81.9477H168.014C171.85 81.8274 175.712 79.9951 177.107 76.7026C177.289 77.1916 179.373 81.9477 184.558 81.9477H212.945C221.071 81.8985 225.948 77.2441 225.948 69.7314C225.947 63.7458 221.071 57.5283 211.978 57.5283Z" fill="#FFFCF3"/>
<path d="M140.95 7.377L154.769 0L148.759 8.1427C148.759 8.1427 150.452 5.26694 148.916 5.03723C147.39 4.74954 141.801 6.89789 140.95 7.377Z" fill="#FFFCF3"/>
<path d="M113.861 0.370509C107.735 -0.0298444 101.861 1.04323 96.626 3.26377C101.521 1.44468 106.338 1.32436 111.964 1.40749C121.178 1.52563 129.738 5.9503 135.789 12.4752C135.65 12.6108 135.089 13.2584 133.733 15.7918C132.917 17.2947 128.153 19.163 128.153 19.163C128.153 19.163 124.163 21.0609 123.004 22.0694C121.86 23.0812 120.333 24.2364 120.294 27.0279C120.294 27.0279 120.349 27.3353 120.567 27.2182C120.567 27.2182 121.853 25.4199 122.875 24.3129C123.895 23.2289 124.921 22.6557 125.445 22.3484C125.961 22.0443 131.747 18.5549 132.574 17.9248C133.419 17.3308 135.143 16.016 135.418 15.7327C135.705 15.4373 135.844 15.3247 136.016 14.6902C136.125 14.2122 136.721 13.9366 136.994 13.8305C142.32 20.1278 145.392 28.0955 144.752 35.9155C144.339 40.9899 143.141 45.0886 140.461 49.2201C143.634 44.8589 145.64 39.7287 146.09 34.1457C147.514 16.7226 133.095 1.6011 113.861 0.370509Z" fill="#FFFCF3"/>
<path d="M134.629 19.1206C134.629 19.1206 132.697 20.2046 132.316 20.4234C131.961 20.6608 131.061 21.1235 130.222 22.6275C129.37 24.16 128.516 25.5919 128.356 25.8872C128.186 26.1749 127.912 26.747 126.911 27.3071C125.899 27.8529 124.35 28.4206 123.558 29.847C123.558 29.847 123.321 30.3589 123.82 31.0415C123.82 31.0415 124.03 31.2767 124.115 30.8938C124.286 30.383 124.79 29.5112 125.512 29.0321C125.512 29.0321 126.764 28.2182 127.939 27.8945C129.122 27.5466 130.153 26.4287 130.577 25.6192C131.017 24.8131 132.021 21.9975 132.375 21.4888C132.727 20.9878 133.222 20.3479 134.598 19.6818L134.629 19.1206Z" fill="#FFFCF3"/>
<path d="M120.493 29.6099C120.493 29.6099 123.747 30.6239 123.32 33.8464C123.32 33.8464 123.219 34.6657 122.26 36.2026C121.269 37.793 120.347 39.3102 120.052 40.1569C119.767 41.0123 119.313 42.6213 119.86 44.5947C119.86 44.5947 119.714 44.6428 119.445 44.3179C119.029 43.7458 118.135 42.3194 117.993 41.5231C117.853 40.7355 117.604 39.6034 119.147 37.023C120.347 34.9895 120.795 34.5771 121.106 33.7173C121.423 32.8488 121.542 31.802 120.493 29.6099Z" fill="#FFFCF3"/>
<path d="M117.434 26.1748C117.935 25.8325 118.369 25.5852 118.522 24.8972C118.258 24.4236 115.787 20.4889 115.357 19.8578C114.604 19.4563 113.695 19.1851 112.752 19.1851C110.022 19.1851 107.831 21.154 107.831 23.5638C107.831 25.3424 109.04 26.8815 110.758 27.5586C110.697 27.995 110.654 28.5474 110.605 28.9675C106.809 30.6345 103.859 31.0775 102.502 34.6358C102.242 35.325 100.741 37.0106 101.524 38.0585C102.194 38.9621 105.138 38.2729 106.019 37.9831C109.384 36.8586 111.877 34.5779 113.034 31.4407V30.8828H112.946C110.596 33.0224 108.455 35.8139 103.681 35.7385C101.496 33.8515 108.378 29.8568 110.96 29.7561C110.96 29.7561 111.222 27.7303 112.606 26.6277C113.532 25.8861 114.541 26.3258 115.104 26.8169L115.275 26.6616C114.541 24.4301 111.679 24.2879 111.076 26.3674C109.935 25.8303 109.163 24.7769 109.163 23.5638C109.163 21.8191 110.754 20.3938 112.748 20.3938C113.518 20.3938 114.236 20.618 114.824 20.9877C114.693 21.2995 114.615 21.4603 114.453 21.8486C115.17 22.1921 116.001 22.7904 116.534 23.0628C116.414 23.3581 116.3 23.659 116.176 23.9477C116.48 24.2934 116.975 24.6117 117.267 24.9431C117.236 25.757 116.58 26.0381 115.901 26.2525V26.328C116.657 26.4155 117.4 26.5063 118.156 26.5883V26.5063C117.899 26.4297 117.759 26.375 117.576 26.305C117.532 26.2787 117.468 26.2437 117.434 26.1748Z" fill="#FFFCF3"/>
</svg>
