<svg width="31" height="31" viewBox="0 0 31 31" fill="none" xmlns="http://www.w3.org/2000/svg">
<path d="M30.9161 9.1136C30.8435 7.46641 30.5771 6.33398 30.1955 5.35271C29.8019 4.31112 29.1963 3.37858 28.4028 2.60336C27.6276 1.81608 26.6889 1.20432 25.6594 0.816833C24.6724 0.435255 23.5459 0.168884 21.8987 0.0962588C20.2392 0.017483 19.7124 -0.000732422 15.5035 -0.000732422C11.2945 -0.000732422 10.7677 0.017483 9.11434 0.0901081C7.46714 0.162733 6.33471 0.429341 5.35368 0.810682C4.31185 1.20432 3.37932 1.80993 2.6041 2.60336C1.81681 3.37858 1.20529 4.31727 0.817565 5.3468C0.435987 6.33398 0.169616 7.46026 0.0969912 9.10745C0.0182154 10.767 0 11.2938 0 15.5027C0 19.7117 0.0182154 20.2385 0.0908406 21.8918C0.163466 23.539 0.430073 24.6715 0.811651 25.6527C1.20529 26.6943 1.81681 27.6269 2.6041 28.4021C3.37932 29.1894 4.318 29.8011 5.34753 30.1886C6.33471 30.5702 7.46099 30.8366 9.10842 30.9092C10.7615 30.9821 11.2886 31 15.4975 31C19.7065 31 20.2333 30.9821 21.8867 30.9092C23.5339 30.8366 24.6663 30.5702 25.6473 30.1886C27.7307 29.3831 29.3779 27.7359 30.1834 25.6527C30.5648 24.6656 30.8314 23.539 30.904 21.8918C30.9766 20.2385 30.9949 19.7117 30.9949 15.5027C30.9949 11.2938 30.9887 10.767 30.9161 9.1136ZM28.1244 21.7707C28.0577 23.2847 27.8034 24.1023 27.5914 24.6473C27.0705 25.9979 25.9986 27.0698 24.6481 27.5907C24.103 27.8026 23.2796 28.0569 21.7715 28.1234C20.1363 28.1963 19.6459 28.2143 15.5096 28.2143C11.3733 28.2143 10.8767 28.1963 9.24752 28.1234C7.73351 28.0569 6.91595 27.8026 6.3709 27.5907C5.69883 27.3423 5.08707 26.9486 4.59052 26.4339C4.07576 25.9312 3.68212 25.3256 3.43373 24.6535C3.22177 24.1084 2.96746 23.2847 2.90098 21.7769C2.82812 20.1417 2.81014 19.6511 2.81014 15.5148C2.81014 11.3785 2.82812 10.8819 2.90098 9.25294C2.96746 7.73893 3.22177 6.92137 3.43373 6.37632C3.68212 5.70401 4.07576 5.09249 4.59668 4.59571C5.09914 4.08094 5.70474 3.6873 6.37706 3.43914C6.9221 3.22718 7.74581 2.97288 9.25367 2.90617C10.8888 2.83354 11.3794 2.81533 15.5155 2.81533C19.658 2.81533 20.1484 2.83354 21.7776 2.90617C23.2916 2.97288 24.1092 3.22718 24.6542 3.43914C25.3263 3.6873 25.9381 4.08094 26.4346 4.59571C26.9494 5.0984 27.343 5.70401 27.5914 6.37632C27.8034 6.92137 28.0577 7.74485 28.1244 9.25294C28.197 10.8881 28.2152 11.3785 28.2152 15.5148C28.2152 19.6511 28.197 20.1356 28.1244 21.7707Z" fill="black"/>
<path d="M15.5032 7.539C11.1067 7.539 7.53955 11.1059 7.53955 15.5027C7.53955 19.8995 11.1067 23.4664 15.5032 23.4664C19.9 23.4664 23.4669 19.8995 23.4669 15.5027C23.4669 11.1059 19.9 7.539 15.5032 7.539ZM15.5032 20.6685C12.651 20.6685 10.3374 18.3552 10.3374 15.5027C10.3374 12.6502 12.651 10.3368 15.5032 10.3368C18.3557 10.3368 20.6691 12.6502 20.6691 15.5027C20.6691 18.3552 18.3557 20.6685 15.5032 20.6685Z" fill="black"/>
<path d="M25.6412 7.22415C25.6412 8.25083 24.8087 9.0833 23.7818 9.0833C22.7551 9.0833 21.9226 8.25083 21.9226 7.22415C21.9226 6.19722 22.7551 5.36499 23.7818 5.36499C24.8087 5.36499 25.6412 6.19722 25.6412 7.22415Z" fill="black"/>
</svg>
