<?xml version="1.0" encoding="UTF-8"?>
<svg id="Layer_1" data-name="Layer 1" xmlns="http://www.w3.org/2000/svg" version="1.1" viewBox="0 0 1459 725">
  <defs>
    <style>
      .cls-1 {
        fill: #fff;
      }

      .cls-1, .cls-2 {
        stroke-width: 0px;
      }

      .cls-2 {
        fill: #eff7ff;
      }
    </style>
  </defs>
  <path class="cls-1" d="M1295,470c-17.5,0-32,14-32,42s17.5,42,33.8,42,32-14,32-42-17.7-42-33.8-42h0Z"/>
  <path class="cls-2" d="M0,0v725h1459V0H0ZM967.3,64l-34.2,52.3s9.6-18.5.9-19.9c-8.7-1.8-40.5,11.9-45.3,15l78.6-47.3h0ZM734.6,66.4c109.4,7.9,191.5,105,183.4,216.8-2.6,35.8-14,68.8-32,96.8,15.2-26.5,22.1-52.8,24.4-85.4,3.6-50.2-13.8-101.3-44.1-141.8-1.5.7-5,2.4-5.6,5.5-1,4.1-1.8,4.8-3.4,6.7-1.6,1.8-11.4,10.3-16.2,14.1-4.7,4.1-37.6,26.4-40.6,28.4-3,2-8.8,5.6-14.6,12.6-5.8,7.1-13.1,18.6-13.1,18.6-1.2.8-1.5-1.2-1.5-1.2.2-17.9,8.9-25.3,15.4-31.8,6.6-6.5,29.3-18.6,29.3-18.6,0,0,27.1-12,31.8-21.6,7.7-16.3,10.9-20.4,11.7-21.3-34.4-41.9-83.1-70.3-135.6-71-32-.5-59.4.2-87.3,11.9,29.8-14.3,63.2-21.1,98.1-18.6h0ZM852.7,186.8l-.2,3.6c-7.8,4.3-10.6,8.4-12.7,11.6-2,3.3-7.7,21.3-10.2,26.5-2.4,5.2-8.3,12.4-15,14.6-6.7,2.1-13.8,7.3-13.8,7.3-4.1,3.1-7,8.7-8,11.9-.5,2.5-1.7,1-1.7,1-2.8-4.4-1.5-7.7-1.5-7.7,4.5-9.1,13.3-12.8,19.1-16.3,5.7-3.6,7.3-7.3,8.2-9.1.9-1.9,5.8-11.1,10.6-20.9,4.8-9.7,9.9-12.6,11.9-14.1,2.2-1.4,13.2-8.4,13.2-8.4h0ZM755.7,232.9c1,.4,1.8.8,3.3,1.3v.5c-4.3-.5-8.5-1.1-12.8-1.7v-.5c3.9-1.4,7.6-3.2,7.8-8.4-1.7-2.1-4.5-4.2-6.2-6.4.7-1.9,1.3-3.8,2-5.7-3-1.8-7.8-5.6-11.8-7.8.9-2.5,1.4-3.5,2.1-5.5-3.3-2.4-7.4-3.8-11.8-3.8-11.3,0-20.4,9.1-20.4,20.4s4.4,14.6,10.9,18c3.4-13.4,19.7-12.4,23.9,1.9l-1,1c-3.2-3.1-8.9-6-14.2-1.2-7.9,7.1-9.4,20.1-9.4,20.1-14.7.6-53.8,26.3-41.4,38.4,27.2.5,39.3-17.4,52.7-31.2h.5v3.6c-6.6,20.1-20.8,34.8-39.9,42-5,1.9-21.8,6.3-25.6.5-4.5-6.7,4.1-17.5,5.6-22,7.7-22.8,24.5-25.7,46.1-36.4.3-2.7.5-6.2.9-9-9.8-4.3-16.7-14.2-16.7-25.6s12.5-28.1,28-28.1,10.5,1.7,14.8,4.3c2.5,4.1,16.5,29.3,18,32.3-.9,4.4-3.3,6-6.2,8.2.2.4.6.7.8.8h0ZM357.6,543.1h-49.1v-116.6c0-20.4-1.9-34-5.9-40.7-3.8-6.7-10.5-10.1-19.8-10.1s-19.6,4.7-26.3,14.1c-6.6,9.5-9.9,27.8-9.9,55.2v98h-49v-111.9c0-22.1-1.3-36.3-3.9-42.8-3.6-8.4-10.6-12.7-21.2-12.7s-13.8,2.2-19.8,6.5c-6,4.4-10.4,10.8-12.9,19.1-2.8,8.5-4,22.6-4,42.6v99.1h-49.1v-210.9h45.1v34.5c8-10.9,16.8-19.2,26.4-24.5,9.5-5.3,19.9-8.2,31-8.2s22.1,2.8,30.7,8.1c8.7,5.4,15.8,13.6,21.3,24.5,8.2-10.9,16.8-19.1,26.2-24.5,9.4-5.2,19.4-8.1,29.9-8.1s23.3,2.8,32.4,8.2c9.1,5.5,16,13.4,20.7,23.5,4.7,10.2,7.1,25.7,7.1,46.8v130.7h0ZM430.7,544.2c-30.7-7.3-46-27.3-46-60.3v-150.1h45.5v132.5c0,35.2,4.8,56.5,14.3,63.7l-13.8,14.2h0ZM566.8,378.7c-13.7,0-25.2,4.8-34.3,14.4-9.2,9.6-13.8,20.8-13.8,34v115.9h-45.2v-209.5h43v50.5h.6c6-14.2,14.2-26,24.6-35.2,11.6-10.2,24.1-15.3,37.6-15.3h11.2l-5,46.2c-4.8-.6-11.1-1-18.6-1ZM663.8,442.5c-25.4,0-38.9,14.1-38.9,35.6s20.1,36.2,37.7,36.2h84v32h-86.7c-39.3,0-71-30-71-66.9s25.7-69.1,65.9-69.1h67.1c-6.4-40.2-35.1-48.9-52.6-48.7-19.6,0-37.5,13.9-37.5,13.9l-13-26.3s21.2-19,54.7-19c58.6,0,94,59,94,112.4h-103.6,0ZM716,477c0,5.6-1.9,10.3-5.9,14.3-3.8,4-8.7,5.9-14.6,5.9s-10.9-1.9-14.9-5.9c-3.9-3.8-5.9-8.6-5.9-14.4s2-10.8,6-14.7c4.1-3.9,9-5.9,14.8-5.9s10.8,1.9,14.6,5.8c3.9,3.9,5.9,8.9,5.9,14.8h0ZM768.7,350.3s-.8.3-2.4-1.8c-2.4-3.7-7.5-12.8-8.3-17.9-.8-5.1-2.2-12.3,6.6-28.9,6.8-13,9.4-15.7,11.2-21.2,1.8-5.6,2.5-12.3-3.5-26.4,0,0,18.5,6.5,16.1,27.2,0,0-.6,5.3-6,15.1-5.6,10.2-10.9,19.9-12.6,25.4-1.6,5.5-4.2,15.8-1.1,28.5h0ZM794.8,611.7l-13.8-14.2c9.5-7.2,14.3-28.4,14.3-63.7v-200.3h45.4v217.9c0,32.9-15.2,53-45.9,60.3h0ZM1066,635.2c-3.8,4-8.8,5.9-14.7,5.9s-10.8-1.9-14.8-5.8c-3.9-3.8-6-8.6-6-14.3s2-10.8,6.1-14.8c4.1-4,9-5.9,14.8-5.9s10.8,1.9,14.7,5.9c3.9,3.9,5.8,8.8,5.8,14.8s-1.9,10.2-5.8,14.2h0ZM1126.9,633.9c-3.8,3.9-8.7,6-14.7,6s-10.9-2.1-14.8-6c-4-3.9-6-8.7-6-14.3s2.1-10.9,6.1-14.7c4-3.9,8.9-5.9,14.8-5.9s10.8,2,14.7,5.8c3.8,3.8,5.8,8.7,5.8,14.8s-2,10.3-5.8,14.3h0ZM1298.3,590h-161.5c-29.5,0-41.4-30.5-42.4-33.7-7.9,21.1-29.9,32.9-51.7,33.7h-81.3c-20.3,0-33.3-14.4-39.1-24.5v22.5c0,32.9-15.3,53.1-69.5,72.9l-13.9-14.2c33.2-19.7,38-40.9,38-76.2v-132.4h45.4v74.5c3,24.1,23.8,36.8,36.4,36.8h65.5c12.2,0,33.9-7.9,33.9-29.5l-.2-82.2h45.6c.3,81.9.3,31.2,1.1,65.4.7,31.3,21.9,46.3,35.9,46.3h85.5c-6.1-11.5-8.9-24.7-8.9-37.8,0-48.5,28.4-78.3,75.8-78.3s79.5,39.9,79.5,78.3-27.7,78.1-74,78.4h0Z"/>
</svg>