<svg width="256" height="256" viewBox="0 0 256 256" fill="none" xmlns="http://www.w3.org/2000/svg">
<path d="M71.6999 161.1L68.9999 163.9C62.8999 162.5 59.8999 158.5 59.8999 152V122.4H68.8999V148.6C68.8999 155.6 69.7999 159.8 71.6999 161.2" fill="black"/>
<path d="M141 161.8V122.2H150V165.2C150 171.7 147 175.7 140.9 177.1L138.2 174.3C140.1 172.9 141 168.7 141 161.7" fill="black"/>
<path d="M100.5 122.3L99.4999 131.4C98.4999 131.3 97.2999 131.2 95.7999 131.2C93.0999 131.2 90.7999 132.1 88.9999 134C87.1999 135.9 86.2999 138.1 86.2999 140.7V163.6H77.3999V122.2H85.8999V132.2H85.9999C87.1999 129.4 88.7999 127.1 90.8999 125.2C93.1999 123.2 95.6999 122.2 98.2999 122.2H100.5V122.3Z" fill="black"/>
<path d="M115 143.8C110 143.8 107.3 146.6 107.3 150.8C107.3 155 111.3 157.9 114.7 157.9H131.3V164.2H114.2C106.4 164.2 100.2 158.3 100.2 151C100.2 143.7 105.3 137.4 113.2 137.4H126.5C125.2 129.5 119.6 127.7 116.1 127.8C112.2 127.8 108.7 130.5 108.7 130.5L106.1 125.3C106.1 125.3 110.3 121.6 116.9 121.6C128.5 121.6 135.5 133.3 135.5 143.8H115Z" fill="black"/>
<path d="M125.3 150.6C125.3 151.7 124.9 152.6 124.1 153.4C123.3 154.2 122.4 154.6 121.2 154.6C120 154.6 119 154.2 118.3 153.4C117.5 152.6 117.1 151.7 117.1 150.6C117.1 149.5 117.5 148.5 118.3 147.7C119.1 146.9 120.1 146.5 121.2 146.5C122.3 146.5 123.3 146.9 124.1 147.6C124.9 148.4 125.3 149.4 125.3 150.5" fill="black"/>
<path d="M207.7 178.8C207.7 179.9 207.3 180.8 206.5 181.6C205.7 182.4 204.8 182.8 203.6 182.8C202.4 182.8 201.5 182.4 200.7 181.6C199.9 180.8 199.5 179.9 199.5 178.8C199.5 177.7 199.9 176.7 200.7 175.9C201.5 175.1 202.5 174.7 203.6 174.7C204.7 174.7 205.7 175.1 206.5 175.9C207.3 176.6 207.7 177.6 207.7 178.8Z" fill="black"/>
<path d="M195.6 179.1C195.6 180.2 195.2 181.1 194.5 181.9C193.7 182.7 192.8 183.1 191.6 183.1C190.4 183.1 189.5 182.7 188.7 181.9C187.9 181.1 187.5 180.2 187.5 179.1C187.5 178 187.9 177 188.7 176.2C189.5 175.4 190.5 175 191.6 175C192.7 175 193.7 175.4 194.5 176.2C195.3 177 195.6 177.9 195.6 179.1Z" fill="black"/>
<path d="M1 122H9.9V128.8C11.5 126.6 13.2 125 15.1 124C17 122.9 19 122.4 21.2 122.4C23.4 122.4 25.6 123 27.3 124C29 125.1 30.4 126.7 31.5 128.8C33.1 126.7 34.8 125 36.7 124C38.6 123 40.5 122.4 42.6 122.4C44.7 122.4 47.2 123 49 124C50.8 125.1 52.2 126.6 53.1 128.6C54 130.6 54.5 133.7 54.5 137.8V163.6H44.8V140.6C44.8 136.6 44.4 133.9 43.6 132.6C42.8 131.3 41.5 130.6 39.7 130.6C37.9 130.6 35.8 131.5 34.5 133.4C33.2 135.3 32.5 138.9 32.5 144.3V163.7H22.8V141.6C22.8 137.2 22.5 134.4 22 133.2C21.3 131.5 19.9 130.7 17.8 130.7C15.7 130.7 15.1 131.1 13.9 132C12.7 132.9 11.9 134.1 11.3 135.8C10.8 137.5 10.5 140.3 10.5 144.2V163.8H1V122.1V122Z" fill="black"/>
<path d="M240 165.8C236.8 165.8 233.3 163 233.3 157.5C233.3 152 236.2 149.2 239.6 149.2C243 149.2 246.3 152 246.3 157.5C246.3 163 243.5 165.8 240 165.8ZM239.3 142C229.9 142 224.3 147.9 224.3 157.5C224.3 167.1 224.9 162.7 226.1 165H209.2C206.4 165 202.2 162 202.1 155.9C202 149.2 202 159.2 201.9 143H192.9V159.2C192.9 163.5 188.6 165 186.2 165H173.3C170.8 165 166.7 162.5 166.1 157.7V143H157.1V169.2C157.1 176.2 156.2 180.4 149.6 184.3L152.3 187.1C163 183.2 166 179.2 166 172.7V168.3C167.2 170.3 169.7 173.1 173.7 173.1H189.8C194.1 172.9 198.5 170.6 200 166.5C200.2 167.1 202.5 173.1 208.4 173.1H240.3C249.4 173.1 254.9 167.1 254.9 157.6C254.9 150 249.4 142.1 239.2 142.1" fill="black"/>
<path d="M159.4 78.4L174.9 69L168.1 79.3C168.1 79.3 170 75.7 168.3 75.4C166.6 75 160.3 77.8 159.3 78.4" fill="black"/>
<path d="M129 69.5C122.1 69 115.5 70.4 109.6 73.2C115.1 70.9 120.5 70.7 126.8 70.8C137.2 70.9 146.8 76.6 153.6 84.8C153.4 85 152.8 85.8 151.3 89C150.4 90.9 145 93.3 145 93.3C145 93.3 140.5 95.7 139.2 97C137.9 98.3 136.2 99.7 136.2 103.3C136.2 103.3 136.2 103.7 136.5 103.5C136.5 103.5 137.9 101.2 139.1 99.8C140.2 98.4 141.4 97.7 142 97.3C142.6 96.9 149.1 92.5 150 91.7C150.9 90.9 152.9 89.3 153.2 88.9C153.5 88.5 153.7 88.4 153.9 87.6C154 87 154.7 86.6 155 86.5C161 94.5 164.4 104.6 163.7 114.5C163.2 120.9 161.9 126.1 158.9 131.4C162.5 125.9 164.7 119.4 165.2 112.3C166.8 90.2 150.6 71 129 69.5Z" fill="black"/>
<path d="M152.3 93.3C152.3 93.3 150.1 94.7 149.7 95C149.3 95.3 148.3 95.9 147.3 97.8C146.3 99.7 145.4 101.6 145.2 101.9C145 102.3 144.7 103 143.6 103.7C142.5 104.4 140.7 105.1 139.8 106.9C139.8 106.9 139.5 107.5 140.1 108.4C140.1 108.4 140.3 108.7 140.4 108.2C140.6 107.6 141.2 106.4 142 105.8C142 105.8 143.4 104.8 144.7 104.4C146 104 147.2 102.5 147.7 101.5C148.2 100.5 149.3 96.9 149.7 96.3C150.1 95.7 150.7 94.9 152.2 94V93.3H152.3Z" fill="black"/>
<path d="M136.4 106.6C136.4 106.6 140.1 107.9 139.6 112C139.6 112 139.5 113 138.4 115C137.3 117 136.3 118.9 135.9 120C135.6 121.1 135.1 123.1 135.7 125.6C135.7 125.6 135.5 125.6 135.2 125.2C134.7 124.5 133.7 122.7 133.6 121.7C133.4 120.7 133.2 119.3 134.9 116C136.2 113.4 136.8 112.9 137.1 111.8C137.5 110.7 137.6 109.4 136.4 106.6Z" fill="black"/>
<path d="M133 102.2C133.6 101.8 134.1 101.5 134.2 100.6C133.9 100 131.1 95 130.6 94.2C129.8 93.7 128.7 93.3 127.7 93.3C124.6 93.3 122.2 95.8 122.2 98.9C122.2 102 123.6 103.1 125.5 104C125.5 104.6 125.4 105.3 125.3 105.8C121 107.9 117.7 108.5 116.2 113C115.9 113.9 114.2 116 115.1 117.3C115.9 118.4 119.2 117.6 120.2 117.3C124 115.9 126.8 113 128.1 109V108.3C125.5 111 123.1 114.6 117.7 114.5C115.2 112.1 123 107 125.9 106.9C125.9 106.9 126.2 104.3 127.7 102.9C128.7 102 129.9 102.5 130.5 103.1L130.7 102.9C129.9 100.1 126.7 99.9 126 102.5C124.7 101.8 123.9 100.5 123.9 98.9C123.9 96.7 125.7 94.9 127.9 94.9C130.1 94.9 129.6 95.2 130.2 95.7C130.1 96.1 130 96.3 129.8 96.8C130.6 97.2 131.5 98 132.1 98.3C132 98.7 131.8 99.1 131.7 99.4C132 99.8 132.6 100.2 132.9 100.7C132.9 101.7 132.1 102.1 131.4 102.4C132.3 102.6 133.1 102.7 133.9 102.8C133.6 102.6 133.5 102.5 133.2 102.4C133.2 102.4 133.1 102.4 133 102.2Z" fill="black"/>
</svg>
